<svg xmlns="http://www.w3.org/2000/svg" xmlns:xlink="http://www.w3.org/1999/xlink" width="41" height="20" viewBox="0 0 41 20"><defs><path id="e2u5a" d="M216.1 43.23a4.53 4.53 0 0 1 3.25-1.27c2.02 0 3.3.97 3.83 2.92.18.63.26 1.46.26 2.48a9.4 9.4 0 0 1-2.15 5.91 7.27 7.27 0 0 1-5.75 2.55c-.4 0-.8-.03-1.18-.1l-.83 5.96h-3.73l2.34-17.6-1.37-.58.23-.93 4.6-.6.61.27zm-1.5 10.8a4 4 0 0 0 1.34.17c.6 0 1.12-.21 1.57-.62a4.4 4.4 0 0 0 1.08-1.62c.53-1.28.8-2.92.8-4.91 0-1.39-.32-2.32-.94-2.8-.21-.16-.5-.24-.84-.24-.61 0-1.2.38-1.76 1.14zm16.66-.3c1.39 0 2.55-.61 3.49-1.83l.75 1.2a6.06 6.06 0 0 1-3.47 2.44c-.6.2-1.26.28-1.94.28-.7 0-1.28-.06-1.78-.2s-.94-.33-1.32-.57a3.9 3.9 0 0 1-.97-.86c-.27-.33-.48-.7-.66-1.08a6.29 6.29 0 0 1-.5-2.56v-.07c0-2.44.73-4.48 2.2-6.1a6.96 6.96 0 0 1 5.4-2.42c1.88 0 3.08.6 3.6 1.77a3.99 3.99 0 0 1-.05 2.93c-.2.5-.49.93-.86 1.32-.38.4-.81.73-1.3 1.02a10.6 10.6 0 0 1-4.78 1.26c0 1.22.2 2.1.58 2.65.4.54.93.82 1.6.82zm.34-10.15c-1.46 0-2.3 1.76-2.53 5.27.82-.05 1.59-.38 2.3-.98.79-.69 1.19-1.58 1.19-2.66 0-1.09-.32-1.63-.96-1.63zm14.52 8.5c.28.58.52.95.73 1.14.2.18.42.27.64.27.22 0 .54-.15.96-.44l.53.98c-.42.65-1.22 1.17-2.42 1.56-.47.16-1.02.23-1.63.23-1.09 0-1.79-.4-2.08-1.23l-1.16-3.37-2.73 4.37h-3.7l5.43-6.88-1.93-3.68-.2-.34c-.24-.42-.47-.63-.72-.63-.37 0-.68.07-.93.22l-.46-.98c.37-.49 1.1-.87 2.2-1.16.42-.12.9-.18 1.48-.18 1.2 0 1.93.41 2.19 1.23l1 2.95 2.6-4.09h3.57l-5.24 6.66z"/></defs><g><g transform="translate(-209 -42)"><use fill="#e7526b" xlink:href="#e2u5a"/></g></g></svg>