<svg xmlns="http://www.w3.org/2000/svg" xmlns:xlink="http://www.w3.org/1999/xlink" width="132" height="11" viewBox="0 0 132 11"><defs><path id="a" d="M263.92 48.73a3 3 0 0 1-2.12.77h-.38c-.14 0-.29 0-.46-.02l-.25 2.11.96.15-.04.42h-2.65l.04-.42.73-.15.78-6.3-.65-.1.06-.5h1.24l1.39-.08c1.47 0 2.2.63 2.23 1.9v.08c0 .89-.3 1.6-.88 2.14zm-2.89.12c1.5.25 2.38-.17 2.64-1.26a3.95 3.95 0 0 0 .06-1.61c-.12-.53-.52-.8-1.2-.8-.33 0-.67.04-1.03.11zm9.14 3.09c-.32.21-.6.32-.86.32-.43 0-.63-.22-.6-.64.01-.28.05-.59.11-.92a123 123 0 0 0 .3-1.68c.07-.4.1-.71.1-.94 0-.22-.01-.38-.04-.49a.53.53 0 0 0-.13-.22c-.07-.08-.19-.12-.35-.12-.15 0-.3.03-.45.1-.14.06-.29.15-.44.26-.31.24-.59.53-.83.89l-.49 3.66h-.95l.95-7.24-.58-.2.08-.41 1.3-.2.26.13-.47 3.47c.43-.57.91-.95 1.45-1.14.18-.06.37-.09.55-.09.18 0 .33.03.47.08.13.05.25.13.34.25.2.24.3.62.3 1.15 0 .29-.03.61-.1.98l-.14.75-.13.78c-.09.55-.12.88-.1 1 .03.1.06.15.11.15.11 0 .29-.09.52-.27l.15.25c-.06.12-.18.23-.33.34zm2.48.17c-.74-.32-1.11-1.05-1.11-2.18 0-.87.25-1.65.75-2.34.34-.46.75-.78 1.24-.97a2.2 2.2 0 0 1 1.6.01c.23.1.44.25.6.44.34.4.51.97.51 1.7 0 .9-.25 1.7-.75 2.38-.34.46-.75.78-1.24.97a2.28 2.28 0 0 1-1.6-.01zm-.1-2.18c0 .84.2 1.38.62 1.61.14.08.3.12.48.12a1 1 0 0 0 .5-.13c.15-.08.28-.2.4-.35.12-.15.22-.32.31-.51a4.6 4.6 0 0 0 .36-1.86c0-.84-.2-1.38-.62-1.62a.95.95 0 0 0-.48-.11 1 1 0 0 0-.5.13c-.15.08-.28.2-.4.35-.12.15-.22.32-.31.51a4.6 4.6 0 0 0-.36 1.86zm6.3 2.26c-.15.05-.3.07-.43.07-.6 0-.9-.3-.9-.88v-.05l.06-.6.45-3.53h-.59l.1-.43.6-.23c.19-.22.4-.65.65-1.3h.46l-.16 1.28h1.28l-.1.68h-1.26l-.41 3.06a7.05 7.05 0 0 0-.07 1.09l.06.14c.06.06.14.09.26.09.11 0 .21-.01.3-.04l.27-.1c.18-.1.33-.18.44-.27l.1.38c-.23.27-.6.48-1.1.64zm3.17-.08c-.74-.32-1.11-1.05-1.11-2.18 0-.87.25-1.65.75-2.34.34-.46.75-.78 1.24-.97a2.2 2.2 0 0 1 1.6.01c.23.1.44.25.6.44.34.4.51.97.51 1.7 0 .9-.25 1.7-.75 2.38-.34.46-.75.78-1.24.97a2.28 2.28 0 0 1-1.6-.01zm-.1-2.18c0 .84.2 1.38.62 1.61.14.08.3.12.48.12a1 1 0 0 0 .5-.13c.15-.08.28-.2.4-.35.12-.15.22-.32.31-.51a4.6 4.6 0 0 0 .36-1.86c0-.84-.2-1.38-.62-1.62a.95.95 0 0 0-.48-.11 1 1 0 0 0-.5.13c-.15.08-.28.2-.4.35-.12.15-.22.32-.31.51a4.6 4.6 0 0 0-.36 1.86zm4.62 1.3a2.29 2.29 0 0 0 1.28.37c.13 0 .25 0 .36-.02a.94.94 0 0 0 .32-.1c.22-.1.32-.3.32-.58 0-.34-.18-.65-.54-.95l-.3-.23a4.04 4.04 0 0 1-.65-.63 1.62 1.62 0 0 1-.39-.95c0-.3.06-.54.16-.74.1-.2.24-.36.41-.5.36-.28.8-.42 1.31-.42a3.93 3.93 0 0 1 1.25.18l-.18.82c-.09-.13-.31-.23-.68-.32a1.6 1.6 0 0 0-.74-.02c-.1.02-.2.06-.28.1-.21.14-.32.35-.32.64 0 .36.26.74.77 1.13.34.26.57.47.7.64.27.34.4.67.4.97 0 .31-.06.56-.16.76-.1.19-.25.35-.43.48-.36.27-.8.4-1.35.4a3.6 3.6 0 0 1-1.22-.18.71.71 0 0 1-.21-.11zm9.17.7c-.31.22-.6.33-.86.33-.42 0-.62-.22-.6-.64.02-.28.06-.59.12-.92a123 123 0 0 0 .3-1.68c.06-.4.1-.71.1-.94 0-.22-.02-.38-.05-.49a.53.53 0 0 0-.12-.22c-.08-.08-.2-.12-.35-.12-.16 0-.3.03-.45.1-.15.06-.3.15-.44.26-.32.24-.6.53-.84.89l-.49 3.66h-.94l.94-7.24-.58-.2.09-.41 1.3-.2.25.13-.46 3.47c.43-.57.9-.95 1.44-1.14.19-.06.37-.09.55-.09.18 0 .34.03.47.08.14.05.25.13.35.25.2.24.3.62.3 1.15 0 .29-.04.61-.1.98l-.15.75-.13.78c-.08.55-.11.88-.09 1 .02.1.06.15.1.15.12 0 .3-.09.53-.27l.15.25c-.07.12-.18.23-.34.34zm2.48.18c-.74-.32-1.1-1.05-1.1-2.18 0-.87.24-1.65.75-2.34.33-.46.74-.78 1.23-.97a2.2 2.2 0 0 1 1.6.01c.24.1.44.25.6.44.35.4.52.97.52 1.7 0 .9-.25 1.7-.76 2.38-.34.46-.75.78-1.24.97a2.28 2.28 0 0 1-1.6-.01zm-.1-2.18c0 .84.21 1.38.63 1.61.13.08.29.12.47.12a1 1 0 0 0 .5-.13c.15-.08.29-.2.4-.35.12-.15.23-.32.32-.51a4.6 4.6 0 0 0 .36-1.86c0-.84-.21-1.38-.63-1.62a.95.95 0 0 0-.47-.11 1 1 0 0 0-.5.13c-.15.08-.29.2-.4.35-.13.15-.23.32-.32.51a4.6 4.6 0 0 0-.36 1.86zm8.66 1.06c-.37.52-.83.89-1.38 1.1-.28.11-.55.17-.81.17s-.51-.03-.76-.08l-.34 2.52h-.93l.99-7.33-.53-.25.08-.38 1.28-.26.23.12-.08.6c.4-.48.86-.72 1.41-.72.55 0 .97.2 1.26.6.27.38.4.88.4 1.52 0 .83-.27 1.63-.82 2.39zm-2.85.5c.17.12.39.18.65.18a1.5 1.5 0 0 0 1.17-.52c.15-.16.27-.34.38-.54a4.44 4.44 0 0 0 .47-1.98c0-.46-.07-.81-.22-1.07-.15-.25-.35-.38-.6-.38-.37 0-.74.18-1.1.54-.1.1-.2.2-.27.3zm7.42-6.2l-.6-.1.05-.5h2.28l-.05.5-.77.08.58 4.76.18 1.3.27-.97 1.68-4.5-.06-.58-.58-.1.05-.5h2.33l-.1.5-.73.1.51 4.75.09 1.3.36-1.11 1.99-4.92-.64-.12.05-.5h2.06l-.07.5-.59.11-2.91 6.92h-.99l-.57-5.03-1.89 5.03h-.98zm9.85 6c.18.2.41.29.69.29.6 0 1.14-.24 1.66-.71l.22.4a2.2 2.2 0 0 1-.75.64 2.38 2.38 0 0 1-2.14.16 1.81 1.81 0 0 1-.97-1.2c-.06-.23-.1-.43-.1-.57l.01-.45a4.36 4.36 0 0 1 .84-2.27c.18-.22.37-.42.58-.58.45-.35.94-.52 1.46-.52.67 0 1.1.25 1.3.74.05.15.08.33.08.54 0 .21-.06.42-.17.63-.12.2-.27.39-.46.55-.19.17-.4.3-.64.42a5.2 5.2 0 0 1-1.97.55 2.02 2.02 0 0 0 0 .4 1.99 1.99 0 0 0 .17.67c.04.12.11.22.2.3zm-.1-2.88c-.12.33-.2.65-.24.97.48-.03.94-.17 1.4-.44.34-.2.57-.42.71-.7.07-.14.11-.31.11-.52 0-.21-.05-.38-.17-.5a.58.58 0 0 0-.43-.17.97.97 0 0 0-.47.12 1.4 1.4 0 0 0-.38.3 2.4 2.4 0 0 0-.3.44c-.1.16-.17.33-.24.5zm8.08 2.58a2.75 2.75 0 0 1-2.33 1.27c-.35 0-.73-.08-1.13-.22l-.48.22.96-7.35-.46-.2.1-.42 1.18-.19.24.14-.4 3.05c.28-.37.62-.61 1.02-.74.14-.05.33-.07.55-.07a1.43 1.43 0 0 1 1.16.6c.27.38.4.88.4 1.52 0 .83-.26 1.63-.81 2.39zm-2.89.47c.17.14.4.2.67.2.28 0 .5-.04.7-.13.18-.1.35-.22.49-.38.15-.16.27-.34.38-.54a4.44 4.44 0 0 0 .47-1.98c0-.46-.08-.81-.22-1.07-.15-.25-.35-.38-.6-.38-.28 0-.56.1-.85.32-.24.17-.44.38-.59.61zm4.62-.23a2.29 2.29 0 0 0 1.28.37c.12 0 .24 0 .35-.02a.94.94 0 0 0 .32-.1c.22-.1.33-.3.33-.58 0-.34-.18-.65-.54-.95l-.3-.23a4.04 4.04 0 0 1-.66-.63 1.62 1.62 0 0 1-.38-.95c0-.3.05-.54.15-.74.1-.2.24-.36.42-.5.36-.28.8-.42 1.3-.42a3.93 3.93 0 0 1 1.26.18l-.19.82c-.08-.13-.3-.23-.68-.32a1.6 1.6 0 0 0-.73-.02c-.1.02-.2.06-.28.1-.22.14-.33.35-.33.64 0 .36.26.74.78 1.13.33.26.56.47.7.64.26.34.4.67.4.97 0 .31-.06.56-.17.76-.1.19-.24.35-.42.48-.36.27-.81.4-1.35.4a3.6 3.6 0 0 1-1.22-.18.71.71 0 0 1-.22-.11zm6.58-6.06a.7.7 0 0 1-.5.21.56.56 0 0 1-.23-.05.52.52 0 0 1-.34-.5c0-.2.08-.37.24-.52.15-.14.29-.21.41-.21.13 0 .23.01.3.04.23.1.35.26.35.5 0 .2-.08.37-.23.53zm-.8 7c-.14.06-.28.09-.42.09-.4 0-.6-.19-.6-.56 0-.22.05-.67.15-1.34l.46-2.99-.72-.24.08-.4 1.48-.25.24.12-.68 4.65-.02.16c0 .14.04.2.13.2.12 0 .29-.1.52-.32l.15.26c-.16.25-.42.46-.77.62zm3.47.02c-.15.05-.3.07-.43.07-.6 0-.9-.3-.9-.88v-.05l.06-.6.45-3.53h-.59l.1-.43.6-.23c.18-.22.4-.65.65-1.3h.46l-.16 1.28h1.28l-.1.68h-1.27l-.4 3.06a7.07 7.07 0 0 0-.07 1.09c.01.06.03.1.06.14.06.06.14.09.25.09.12 0 .22-.01.31-.04l.26-.1c.19-.1.34-.18.45-.27l.1.38c-.23.27-.6.48-1.1.64zm3.44-.9c.18.2.4.29.68.29.6 0 1.15-.24 1.66-.71l.23.4a2.2 2.2 0 0 1-.76.64 2.38 2.38 0 0 1-2.14.16 1.81 1.81 0 0 1-.96-1.2c-.07-.23-.1-.43-.1-.57v-.45a4.35 4.35 0 0 1 .84-2.27c.18-.22.37-.42.59-.58.45-.35.93-.52 1.45-.52.68 0 1.11.25 1.3.74.06.15.09.33.09.54 0 .21-.06.42-.18.63-.12.2-.27.39-.46.55-.19.17-.4.3-.64.42a5.2 5.2 0 0 1-1.97.55 1.99 1.99 0 0 0 0 .4c0 .09.02.19.04.31.03.13.07.25.13.36.05.12.12.22.2.3zm-.11-2.88c-.12.33-.2.65-.23.97.47-.03.94-.17 1.4-.44.33-.2.56-.42.7-.7.08-.14.12-.31.12-.52a.67.67 0 0 0-.17-.5.58.58 0 0 0-.44-.17.96.96 0 0 0-.47.12 1.4 1.4 0 0 0-.38.3 3.87 3.87 0 0 0-.53.94zm8.06 3.78c-.15.05-.3.07-.43.07-.6 0-.9-.3-.9-.88v-.05l.06-.6.45-3.53h-.59l.1-.43.6-.23c.18-.22.4-.65.65-1.3h.46l-.16 1.28h1.27l-.1.68h-1.26l-.4 3.06a7.07 7.07 0 0 0-.07 1.09c.01.06.03.1.06.14.05.06.14.09.25.09.12 0 .22-.01.3-.04l.27-.1c.18-.1.33-.18.45-.27l.09.38c-.22.27-.59.48-1.1.64zm3.44-.9c.18.2.4.29.68.29.6 0 1.15-.24 1.66-.71l.22.4a2.2 2.2 0 0 1-.75.64 2.38 2.38 0 0 1-2.14.16 1.81 1.81 0 0 1-.96-1.2c-.07-.23-.1-.43-.1-.57v-.45a4.35 4.35 0 0 1 .84-2.27c.18-.22.37-.42.58-.58.45-.35.94-.52 1.46-.52.68 0 1.11.25 1.3.74.06.15.09.33.09.54 0 .21-.06.42-.18.63-.12.2-.27.39-.46.55-.19.17-.4.3-.64.42a5.2 5.2 0 0 1-1.97.55 1.99 1.99 0 0 0 0 .4 1.98 1.98 0 0 0 .17.67c.05.12.11.22.2.3zm-.11-2.88c-.12.33-.2.65-.24.97.48-.03.95-.17 1.41-.44.33-.2.56-.42.7-.7.08-.14.12-.31.12-.52a.67.67 0 0 0-.18-.5.58.58 0 0 0-.43-.17.96.96 0 0 0-.47.12 1.4 1.4 0 0 0-.38.3c-.1.13-.21.27-.3.44-.09.16-.17.33-.23.5zm11.86 3.5c-.3.23-.58.35-.84.35-.39 0-.58-.2-.58-.57 0-.28.04-.67.12-1.18l.16-1c.1-.67.16-1.13.16-1.38s-.01-.43-.04-.53a.54.54 0 0 0-.11-.23c-.07-.07-.18-.1-.32-.1a.99.99 0 0 0-.41.09c-.14.06-.27.14-.41.25-.28.21-.54.5-.8.85-.02.35-.07.77-.14 1.23l-.31 2.47h-.97l.28-2.16.07-.47c.09-.59.13-1.04.13-1.33 0-.3-.01-.5-.04-.6a.52.52 0 0 0-.1-.23c-.07-.08-.18-.12-.34-.12-.16 0-.31.03-.46.1-.14.06-.29.14-.43.25-.31.24-.6.53-.84.87l-.5 3.69h-.95l.63-4.7-.48-.29.09-.43 1.18-.26.24.12-.1 1.03c.44-.53.92-.88 1.45-1.06a1.6 1.6 0 0 1 .96-.03.8.8 0 0 1 .33.21c.18.2.3.5.32.94.43-.56.9-.93 1.4-1.12.18-.06.35-.09.52-.09.17 0 .32.03.46.08.13.06.25.15.35.27.2.25.31.62.31 1.13 0 .25-.03.57-.1.95-.2 1.21-.3 1.94-.32 2.17v.44c.01.07.04.1.09.1.12 0 .3-.1.53-.32l.15.25c-.08.13-.2.25-.34.36zm5.37-.92c-.37.52-.83.89-1.37 1.1-.29.11-.56.17-.82.17-.26 0-.51-.03-.75-.08l-.35 2.52h-.93l1-7.33-.54-.25.09-.38 1.28-.26.23.12-.1.6c.4-.48.88-.72 1.42-.72.55 0 .97.2 1.26.6.27.38.4.88.4 1.52 0 .83-.27 1.63-.82 2.39zm-2.85.5c.17.12.39.18.65.18a1.5 1.5 0 0 0 1.18-.52c.14-.16.27-.34.37-.54a4.44 4.44 0 0 0 .47-1.98c0-.46-.07-.81-.22-1.07-.14-.25-.34-.38-.6-.38-.37 0-.74.18-1.1.54-.1.1-.2.2-.26.3zm5.85-.24c-.03.24 0 .37.1.37.13 0 .3-.1.53-.32l.16.25a1.2 1.2 0 0 1-.33.35c-.32.24-.59.36-.8.36-.23 0-.39-.05-.48-.15-.09-.1-.13-.27-.13-.51 0-.13 0-.25.03-.38l.9-6.3-.6-.2.1-.41 1.28-.2.23.13zm4.92.25c-.42.5-.92.76-1.49.76-.53 0-.93-.2-1.22-.6-.26-.37-.4-.87-.4-1.51 0-.53.13-1.07.38-1.62a3.36 3.36 0 0 1 1.86-1.88c.29-.11.59-.17.9-.17.33 0 .66.06 1 .17l.58-.16-.64 4.76c-.02.13 0 .23.03.28.04.06.1.09.16.09.07 0 .2-.08.39-.23l.15.26c-.06.1-.16.2-.3.3-.29.2-.55.3-.79.3-.41 0-.62-.19-.62-.58v-.07zm.56-4.26c-.16-.1-.36-.16-.61-.16a1.53 1.53 0 0 0-1.18.5c-.15.15-.28.33-.39.53-.1.2-.2.4-.27.63a3.72 3.72 0 0 0 0 2.41c.14.28.33.41.58.41.42 0 .8-.18 1.16-.55.1-.1.19-.2.26-.3zm3.82 4.95c-.15.05-.3.07-.43.07-.6 0-.9-.3-.9-.88v-.05l.06-.6.45-3.53h-.59l.1-.43.6-.23c.18-.22.4-.65.65-1.3h.46l-.16 1.28h1.28l-.1.68h-1.27l-.4 3.06a7.07 7.07 0 0 0-.07 1.09c.01.06.03.1.06.14.05.06.14.09.25.09.12 0 .22-.01.3-.04l.27-.1c.19-.1.33-.18.45-.27l.09.38c-.22.27-.59.48-1.1.64zm3.44-.9c.18.2.4.29.68.29.6 0 1.15-.24 1.66-.71l.22.4a2.2 2.2 0 0 1-.75.64 2.38 2.38 0 0 1-2.14.16 1.81 1.81 0 0 1-.96-1.2c-.07-.23-.1-.43-.1-.57v-.45a4.36 4.36 0 0 1 .84-2.27c.18-.22.37-.42.59-.58.44-.35.93-.52 1.45-.52.68 0 1.11.25 1.3.74.06.15.09.33.09.54 0 .21-.06.42-.18.63-.12.2-.27.39-.46.55-.19.17-.4.3-.64.42a5.2 5.2 0 0 1-1.97.55 2 2 0 0 0 0 .4 1.98 1.98 0 0 0 .17.67c.05.12.11.22.2.3zm-.11-2.88c-.12.33-.2.65-.24.97.48-.03.95-.17 1.41-.44.33-.2.56-.42.7-.7.08-.14.12-.31.12-.52a.67.67 0 0 0-.17-.5.58.58 0 0 0-.44-.17.96.96 0 0 0-.47.12 1.4 1.4 0 0 0-.38.3 2.4 2.4 0 0 0-.3.44 3.9 3.9 0 0 0-.23.5z"/></defs><use fill="#fff" xlink:href="#a" transform="translate(-259 -44)"/></svg>